HIERARCHY
ROOT Hips
{
    OFFSET 0.000000 0.000000 0.000000
    CHANNELS 6 Xposition Yposition Zposition Zrotation Xrotation Yrotation
    JOINT Spine
    {
        OFFSET -0.000000 8.172037 0.000000
        CHANNELS 3 Zrotation Xrotation Yrotation
        JOINT Spine1
        {
            OFFSET -0.000000 18.392342 0.000000
            CHANNELS 3 Zrotation Xrotation Yrotation
            JOINT Neck
            {
                OFFSET -0.000000 18.316809 1.665164
                CHANNELS 3 Zrotation Xrotation Yrotation
                JOINT Head
                {
                    OFFSET -0.000000 13.952258 -1.993180
                    CHANNELS 3 Zrotation Xrotation Yrotation
                    End Site
                    {
                        OFFSET -0.000000 24.914745 0.000000
                    }
                }
            }
            JOINT LeftShoulder
            {
                OFFSET 4.035833 16.062790 -0.310290
                CHANNELS 3 Zrotation Xrotation Yrotation
                JOINT LeftArm
                {
                    OFFSET 12.395579 0.000000 0.000000
                    CHANNELS 3 Zrotation Xrotation Yrotation
                    JOINT LeftForeArm
                    {
                        OFFSET 26.414022 0.000000 0.000000
                        CHANNELS 3 Zrotation Xrotation Yrotation
                        JOINT LeftHand
                        {
                            OFFSET 28.641636 0.000000 0.000000
                            CHANNELS 3 Zrotation Xrotation Yrotation
                            End Site
                            {
                                OFFSET 14.948848 0.000000 0.000000
                            }
                        }
                    }
                }
            }
            JOINT RightShoulder
            {
                OFFSET -3.919767 16.062790 -0.310290
                CHANNELS 3 Zrotation Xrotation Yrotation
                JOINT RightArm
                {
                    OFFSET -12.395579 0.000000 0.000000
                    CHANNELS 3 Zrotation Xrotation Yrotation
                    JOINT RightForeArm
                    {
                        OFFSET -26.414022 0.000000 0.000000
                        CHANNELS 3 Zrotation Xrotation Yrotation
                        JOINT RightHand
                        {
                            OFFSET -28.641636 0.000000 0.000000
                            CHANNELS 3 Zrotation Xrotation Yrotation
                            End Site
                            {
                                OFFSET -14.948848 0.000000 0.000000
                            }
                        }
                    }
                }
            }
        }
    }
    JOINT LeftUpLeg
    {
        OFFSET 9.965899 0.000000 0.000000
        CHANNELS 3 Zrotation Xrotation Yrotation
        JOINT LeftLeg
        {
            OFFSET -0.000000 -49.671295 0.000000
            CHANNELS 3 Zrotation Xrotation Yrotation
            JOINT LeftFoot
            {
                OFFSET -0.000000 -36.155865 0.000000
                CHANNELS 3 Zrotation Xrotation Yrotation
                JOINT LeftToeBase
                {
                    OFFSET -0.000000 -6.477834 14.948848
                    CHANNELS 3 Zrotation Xrotation Yrotation
                    End Site
                    {
                        OFFSET -0.000000 0.000000 3.986359
                    }
                }
            }
        }
    }
    JOINT RightUpLeg
    {
        OFFSET -9.965899 0.000000 0.000000
        CHANNELS 3 Zrotation Xrotation Yrotation
        JOINT RightLeg
        {
            OFFSET -0.000000 -49.671295 0.000000
            CHANNELS 3 Zrotation Xrotation Yrotation
            JOINT RightFoot
            {
                OFFSET -0.000000 -36.155865 0.000000
                CHANNELS 3 Zrotation Xrotation Yrotation
                JOINT RightToeBase
                {
                    OFFSET -0.000000 -6.477834 14.948848
                    CHANNELS 3 Zrotation Xrotation Yrotation
                    End Site
                    {
                        OFFSET -0.000000 0.000000 3.986359
                    }
                }
            }
        }
    }
}
MOTION
Frames:    7
Frame Time:    0.010000
-16.762314    94.008064    -41.239941    0.963127    5.198565    166.634827    -3.915222    -2.875995    -1.567738    -1.020676    -6.687820    -1.529060    19.564926    26.062014    4.642282    -16.515656    15.174711    6.572648    12.866562    -4.894087    -12.967859    -53.288975    16.525063    -69.117310    9.308730    -43.174492    -13.746908    10.917395    -39.515026    37.815418    -8.021847    -1.270943    12.354935    59.258102    14.819309    28.604998    9.714467    -0.812185    121.714546    -21.933899    -8.687740    -47.063835    7.752958    -13.679031    10.514488    -4.688689    -2.354342    7.462906    1.559131    3.961479    -6.373485    0.000000    0.000000    0.000000    -5.885599    20.434561    14.148222    6.990491    11.348722    7.734128    -21.411682    -10.344384    -5.945934    0.000000    0.000000    0.000000    
-16.846987    93.847008    -42.576714    1.168572    5.101650    166.419434    -4.306995    -2.942334    -1.219808    -0.472299    -6.361590    -1.135370    20.236635    24.706358    4.460785    -16.812534    16.164608    6.320560    12.793483    -6.818486    -14.442412    -55.251419    16.314768    -66.849808    8.503825    -42.993076    -15.019892    12.519037    -38.778088    39.018688    -7.828265    -1.789679    11.283203    58.857651    15.530073    28.612757    9.518712    -1.462860    122.051529    -21.853060    -9.022561    -47.532005    8.057616    -13.869480    10.447225    -4.809853    -1.948842    8.578003    2.208212    3.244899    -6.616736    0.000000    0.000000    0.000000    -5.986530    20.818398    14.053553    6.955554    12.075737    7.908570    -21.076012    -10.280521    -5.557086    0.000000    0.000000    0.000000    
-16.941214    93.686172    -43.962669    1.303730    5.111510    166.299011    -4.086282    -3.182327    -1.262993    -0.571948    -6.647542    -1.182645    19.759577    25.736063    4.429755    -16.393991    15.610704    6.370415    12.812069    -5.061108    -13.549437    -53.374966    16.648775    -69.017906    9.492826    -43.555458    -13.805635    12.363283    -39.390835    39.101887    -8.044605    -1.216683    12.280156    59.175079    14.983442    28.672886    9.511792    -1.518443    121.840897    -22.227869    -8.831986    -47.476151    8.203707    -14.006726    10.477318    -4.824786    -1.190629    8.901685    3.142828    2.685607    -6.831973    0.000000    0.000000    0.000000    -6.114975    21.278311    13.807747    6.902749    12.802917    7.636759    -20.745424    -10.051742    -4.926632    0.000000    0.000000    0.000000    
-17.041504    93.544334    -45.390041    1.462051    5.227809    166.194107    -4.088725    -3.350176    -1.214150    -0.659519    -6.408580    -1.131456    19.906696    25.690292    4.426772    -16.221766    15.658095    6.379976    13.120105    -4.608944    -13.182900    -53.016129    16.759251    -69.859123    9.718946    -43.480766    -13.393853    11.832662    -39.502384    38.684387    -7.770764    -1.238073    12.496601    59.111755    14.846709    28.535124    9.591097    -1.611758    121.909737    -22.239100    -9.143469    -47.241901    8.344497    -13.946952    10.349249    -4.950880    -0.348326    8.873666    4.126250    2.248017    -6.729345    0.000000    0.000000    0.000000    -6.542378    21.945246    14.172069    7.321442    13.273334    8.067880    -20.430319    -9.538646    -4.981370    0.000000    0.000000    0.000000    
-17.155043    93.412010    -46.835342    1.625486    5.380254    166.107758    -4.422132    -3.063714    -1.005666    -0.427390    -6.327239    -0.910921    20.545601    24.427742    4.330866    -16.313818    16.661406    6.227552    13.692756    -5.120321    -12.944674    -54.046234    17.101126    -70.078308    9.466624    -42.983295    -13.477795    11.141027    -39.212952    38.318096    -7.450770    -1.680740    11.601219    58.896172    15.206586    28.381655    9.472987    -1.470358    122.133972    -22.085396    -8.908084    -47.365704    8.442316    -13.860015    10.272011    -5.088978    0.770041    8.205837    4.861977    1.886154    -6.283608    0.000000    0.000000    0.000000    -6.796810    22.471163    14.163033    7.394489    14.203785    7.880138    -19.826738    -9.276866    -4.239920    0.000000    0.000000    0.000000    
-17.296894    93.267357    -48.362659    1.754973    5.684992    166.009186    -4.054792    -3.388956    -1.108647    -0.919075    -6.038468    -1.037120    20.096247    25.358448    4.395089    -15.780292    15.936447    6.339414    13.307198    -5.193072    -13.489322    -53.476189    16.859615    -69.214523    9.483944    -43.040401    -13.509756    10.786049    -39.366936    38.308712    -7.493693    -1.253502    12.662793    59.129986    14.718554    28.441147    9.355113    -1.810668    121.981339    -22.152777    -8.910806    -47.505077    8.414547    -13.573077    9.839534    -5.249244    1.954253    7.882153    3.397685    2.837480    -4.698124    0.000000    0.000000    0.000000    -7.122576    23.107794    13.812716    7.246363    15.218594    7.216634    -18.900652    -9.133980    -2.665725    0.000000    0.000000    0.000000    
-17.443783    93.165405    -49.887783    1.884547    5.845050    165.909836    -3.912777    -3.472354    -1.090772    -0.939298    -6.219131    -1.023118    19.254940    25.784153    4.411090    -14.844775    15.829304    6.349813    12.976706    -4.742701    -13.460907    -52.522804    17.074459    -69.658356    9.889408    -43.301907    -13.011704    10.609562    -39.685287    38.337807    -7.889749    -0.909307    12.979000    59.463127    14.792012    28.557833    9.219941    -2.264278    122.107681    -22.821365    -8.663396    -48.283699    8.528762    -13.343922    8.790582    -5.655297    2.846747    8.406625    1.353333    6.095777    -3.968074    0.000000    0.000000    0.000000    -7.450237    23.530182    13.520832    7.188531    16.416073    7.121176    -18.115232    -8.761440    -1.513519    0.000000    0.000000    0.000000    
